<?xml version="1.0" encoding="UTF-8" standalone="no"?>
<!DOCTYPE svg PUBLIC "-//W3C//DTD SVG 1.1//EN"
 "http://www.w3.org/Graphics/SVG/1.1/DTD/svg11.dtd">
<!-- Generated by graphviz version 7.1.0 (20230122.1345)
 -->
<!-- Title: cm4twc_uml_class Pages: 1 -->
<svg width="1385pt" height="849pt"
 viewBox="0.00 0.00 1385.00 849.00" xmlns="http://www.w3.org/2000/svg" xmlns:xlink="http://www.w3.org/1999/xlink">
<g id="graph0" class="graph" transform="scale(1 1) rotate(0) translate(4 845)">
<title>cm4twc_uml_class</title>
<g id="clust1" class="cluster">
<title>cluster_component_config</title>
<polygon fill="none" stroke="#7f7f7f" stroke-dasharray="5,2" points="385,-324.5 385,-560.5 769,-560.5 769,-324.5 385,-324.5"/>
</g>
<g id="clust2" class="cluster">
<title>cluster_component_utils</title>
</g>
<!-- BritishNationalGrid -->
<g id="node1" class="node">
<title>BritishNationalGrid</title>
<polygon fill="none" stroke="#7f7f7f" points="0,-585.5 0,-623.5 144,-623.5 144,-585.5 0,-585.5"/>
<text text-anchor="middle" x="72" y="-608.3" font-family="JetBrains Mono Regular" font-size="14.00" fill="#7f7f7f">British</text>
<text text-anchor="middle" x="72" y="-593.3" font-family="JetBrains Mono Regular" font-size="14.00" fill="#7f7f7f"> NationalGrid</text>
</g>
<!-- Grid -->
<g id="node4" class="node">
<title>Grid</title>
<polygon fill="none" stroke="#7f7f7f" points="202,-504.5 202,-540.5 346,-540.5 346,-504.5 202,-504.5"/>
<text text-anchor="middle" x="274" y="-518.8" font-family="JetBrains Mono Regular" font-size="14.00" fill="#7f7f7f">Grid</text>
</g>
<!-- BritishNationalGrid&#45;&gt;Grid -->
<g id="edge3" class="edge">
<title>BritishNationalGrid&#45;&gt;Grid</title>
<path fill="none" stroke="#7f7f7f" d="M119.14,-585.58C147.33,-574.03 183.67,-559.13 213.95,-546.71"/>
<polygon fill="none" stroke="#7f7f7f" points="215.87,-551.6 227.75,-541.05 211.88,-541.88 215.87,-551.6"/>
</g>
<!-- RotatedLatLonGrid -->
<g id="node2" class="node">
<title>RotatedLatLonGrid</title>
<polygon fill="none" stroke="#7f7f7f" points="0,-503.5 0,-541.5 144,-541.5 144,-503.5 0,-503.5"/>
<text text-anchor="middle" x="72" y="-526.3" font-family="JetBrains Mono Regular" font-size="14.00" fill="#7f7f7f">Rotated</text>
<text text-anchor="middle" x="72" y="-511.3" font-family="JetBrains Mono Regular" font-size="14.00" fill="#7f7f7f"> LatLonGrid</text>
</g>
<!-- RotatedLatLonGrid&#45;&gt;Grid -->
<g id="edge2" class="edge">
<title>RotatedLatLonGrid&#45;&gt;Grid</title>
<path fill="none" stroke="#7f7f7f" d="M143.79,-522.5C157.44,-522.5 171.89,-522.5 185.98,-522.5"/>
<polygon fill="none" stroke="#7f7f7f" points="185.79,-527.75 200.79,-522.5 185.79,-517.25 185.79,-527.75"/>
</g>
<!-- LatLonGrid -->
<g id="node3" class="node">
<title>LatLonGrid</title>
<polygon fill="none" stroke="#7f7f7f" points="0,-423.5 0,-459.5 144,-459.5 144,-423.5 0,-423.5"/>
<text text-anchor="middle" x="72" y="-437.8" font-family="JetBrains Mono Regular" font-size="14.00" fill="#7f7f7f">LatLonGrid</text>
</g>
<!-- LatLonGrid&#45;&gt;Grid -->
<g id="edge1" class="edge">
<title>LatLonGrid&#45;&gt;Grid</title>
<path fill="none" stroke="#7f7f7f" d="M117.39,-459.48C145.74,-470.96 182.84,-485.98 213.7,-498.48"/>
<polygon fill="none" stroke="#7f7f7f" points="211.46,-503.24 227.33,-504.01 215.4,-493.51 211.46,-503.24"/>
</g>
<!-- SpaceDomain -->
<g id="node5" class="node">
<title>SpaceDomain</title>
<polygon fill="none" stroke="#7f7f7f" points="404,-504.5 404,-540.5 548,-540.5 548,-504.5 404,-504.5"/>
<text text-anchor="middle" x="476" y="-518.8" font-family="JetBrains Mono Regular" font-size="14.00" fill="#7f7f7f">SpaceDomain</text>
</g>
<!-- Grid&#45;&gt;SpaceDomain -->
<g id="edge4" class="edge">
<title>Grid&#45;&gt;SpaceDomain</title>
<path fill="none" stroke="#7f7f7f" d="M345.79,-522.5C359.44,-522.5 373.89,-522.5 387.98,-522.5"/>
<polygon fill="none" stroke="#7f7f7f" points="387.79,-527.75 402.79,-522.5 387.79,-517.25 387.79,-527.75"/>
</g>
<!-- Component -->
<g id="node11" class="node">
<title>Component</title>
<polygon fill="none" stroke="#7f7f7f" points="606,-355.5 606,-529.5 750,-529.5 750,-355.5 606,-355.5"/>
<text text-anchor="middle" x="678" y="-514.3" font-family="JetBrains Mono Regular" font-size="14.00" fill="#7f7f7f">Component</text>
<polyline fill="none" stroke="#7f7f7f" points="606,-506.5 750,-506.5"/>
<text text-anchor="start" x="614" y="-491.3" font-family="JetBrains Mono Regular" font-size="14.00" fill="#7f7f7f">+inputs</text>
<text text-anchor="start" x="614" y="-476.3" font-family="JetBrains Mono Regular" font-size="14.00" fill="#7f7f7f">+parameters</text>
<text text-anchor="start" x="614" y="-461.3" font-family="JetBrains Mono Regular" font-size="14.00" fill="#7f7f7f">+constants</text>
<text text-anchor="start" x="614" y="-446.3" font-family="JetBrains Mono Regular" font-size="14.00" fill="#7f7f7f">+outputs</text>
<text text-anchor="start" x="614" y="-431.3" font-family="JetBrains Mono Regular" font-size="14.00" fill="#7f7f7f">+records</text>
<text text-anchor="start" x="614" y="-416.3" font-family="JetBrains Mono Regular" font-size="14.00" fill="#7f7f7f">+dump_file</text>
<polyline fill="none" stroke="#7f7f7f" points="606,-408.5 750,-408.5"/>
<text text-anchor="start" x="614" y="-393.3" font-family="JetBrains Mono Regular" font-size="14.00" fill="#7f7f7f">+initialise()</text>
<text text-anchor="start" x="614" y="-378.3" font-family="JetBrains Mono Regular" font-size="14.00" fill="#7f7f7f">+run()</text>
<text text-anchor="start" x="614" y="-363.3" font-family="JetBrains Mono Regular" font-size="14.00" fill="#7f7f7f">+finalise()</text>
</g>
<!-- SpaceDomain&#45;&gt;Component -->
<g id="edge7" class="edge">
<title>SpaceDomain&#45;&gt;Component</title>
<path fill="none" stroke="#7f7f7f" d="M521.88,-504.55C541.71,-496.62 565.73,-487.01 588.9,-477.74"/>
<polygon fill="none" stroke="#7f7f7f" points="588.81,-477.78 594.93,-468.86 605.52,-471.09 599.39,-480.01 588.81,-477.78"/>
<text text-anchor="middle" x="516.88" y="-493.35" font-family="JetBrains Mono Regular" font-size="14.00" fill="#7f7f7f">1</text>
</g>
<!-- TimeDomain -->
<g id="node6" class="node">
<title>TimeDomain</title>
<polygon fill="none" stroke="#7f7f7f" points="404,-424.5 404,-460.5 548,-460.5 548,-424.5 404,-424.5"/>
<text text-anchor="middle" x="476" y="-438.8" font-family="JetBrains Mono Regular" font-size="14.00" fill="#7f7f7f">TimeDomain</text>
</g>
<!-- TimeDomain&#45;&gt;Component -->
<g id="edge6" class="edge">
<title>TimeDomain&#45;&gt;Component</title>
<path fill="none" stroke="#7f7f7f" d="M547.79,-442.5C560.7,-442.5 574.32,-442.5 587.68,-442.5"/>
<polygon fill="none" stroke="#7f7f7f" points="587.4,-442.5 596.4,-436.5 605.4,-442.5 596.4,-448.5 587.4,-442.5"/>
<text text-anchor="middle" x="552.79" y="-431.3" font-family="JetBrains Mono Regular" font-size="14.00" fill="#7f7f7f">1</text>
</g>
<!-- DataSet -->
<g id="node7" class="node">
<title>DataSet</title>
<polygon fill="none" stroke="#7f7f7f" points="404,-344.5 404,-380.5 548,-380.5 548,-344.5 404,-344.5"/>
<text text-anchor="middle" x="476" y="-358.8" font-family="JetBrains Mono Regular" font-size="14.00" fill="#7f7f7f">DataSet</text>
</g>
<!-- DataSet&#45;&gt;Component -->
<g id="edge5" class="edge">
<title>DataSet&#45;&gt;Component</title>
<path fill="none" stroke="#7f7f7f" d="M521.88,-380.45C541.71,-388.38 565.73,-397.99 588.9,-407.26"/>
<polygon fill="none" stroke="#7f7f7f" points="588.81,-407.22 599.39,-404.99 605.52,-413.91 594.93,-416.14 588.81,-407.22"/>
<text text-anchor="middle" x="516.88" y="-384.25" font-family="JetBrains Mono Regular" font-size="14.00" fill="#7f7f7f">1</text>
</g>
<!-- State -->
<g id="node8" class="node">
<title>State</title>
<polygon fill="none" stroke="#7f7f7f" points="202,-184.5 202,-220.5 346,-220.5 346,-184.5 202,-184.5"/>
<text text-anchor="middle" x="274" y="-198.8" font-family="JetBrains Mono Regular" font-size="14.00" fill="#7f7f7f">State</text>
</g>
<!-- State&#45;&gt;Component -->
<g id="edge8" class="edge">
<title>State&#45;&gt;Component</title>
<path fill="none" stroke="#7f7f7f" d="M345.94,-186.47C406.46,-176.87 493.38,-173.15 556,-212.5 600.88,-240.7 630.06,-291.47 648.48,-338.14"/>
<polygon fill="#7f7f7f" stroke="#7f7f7f" points="648.45,-338.05 657.21,-344.4 654.72,-354.93 645.96,-348.58 648.45,-338.05"/>
<text text-anchor="middle" x="358.44" y="-175.27" font-family="JetBrains Mono Regular" font-size="14.00" fill="#7f7f7f">0..*</text>
</g>
<!-- Record -->
<g id="node9" class="node">
<title>Record</title>
<polygon fill="none" stroke="#7f7f7f" points="202,-264.5 202,-300.5 346,-300.5 346,-264.5 202,-264.5"/>
<text text-anchor="middle" x="274" y="-278.8" font-family="JetBrains Mono Regular" font-size="14.00" fill="#7f7f7f">Record</text>
</g>
<!-- RecordStream -->
<g id="node10" class="node">
<title>RecordStream</title>
<polygon fill="none" stroke="#7f7f7f" points="404,-264.5 404,-300.5 548,-300.5 548,-264.5 404,-264.5"/>
<text text-anchor="middle" x="476" y="-278.8" font-family="JetBrains Mono Regular" font-size="14.00" fill="#7f7f7f">RecordStream</text>
</g>
<!-- Record&#45;&gt;RecordStream -->
<g id="edge11" class="edge">
<title>Record&#45;&gt;RecordStream</title>
<path fill="none" stroke="#7f7f7f" d="M345.79,-282.5C359.89,-282.5 374.83,-282.5 389.36,-282.5"/>
<polygon fill="#7f7f7f" stroke="#7f7f7f" points="404.3,-282.5 389.3,-289.25 396.8,-282.5 389.3,-282.5 389.3,-282.5 389.3,-282.5 396.8,-282.5 389.3,-275.75 404.3,-282.5 404.3,-282.5"/>
<text text-anchor="middle" x="358.29" y="-271.3" font-family="JetBrains Mono Regular" font-size="14.00" fill="#7f7f7f">1..*</text>
</g>
<!-- Record&#45;&gt;Component -->
<g id="edge9" class="edge">
<title>Record&#45;&gt;Component</title>
<path fill="none" stroke="#7f7f7f" d="M309.53,-264.65C365.2,-238.56 476.59,-197.73 556,-242.5 593.48,-263.63 620.67,-301.56 639.66,-338.75"/>
<polygon fill="#7f7f7f" stroke="#7f7f7f" points="639.63,-338.68 648.93,-344.19 647.43,-354.91 638.12,-349.39 639.63,-338.68"/>
<text text-anchor="middle" x="297.03" y="-253.45" font-family="JetBrains Mono Regular" font-size="14.00" fill="#7f7f7f">0..*</text>
</g>
<!-- RecordStream&#45;&gt;Component -->
<g id="edge10" class="edge">
<title>RecordStream&#45;&gt;Component</title>
<path fill="none" stroke="#7f7f7f" d="M530.46,-300.49C539.33,-304.49 548.18,-309.16 556,-314.5 568.71,-323.18 581.09,-333.39 592.79,-344.19"/>
<polygon fill="#7f7f7f" stroke="#7f7f7f" points="592.57,-343.98 603.22,-345.91 605.54,-356.47 594.89,-354.55 592.57,-343.98"/>
<text text-anchor="middle" x="542.96" y="-304.29" font-family="JetBrains Mono Regular" font-size="14.00" fill="#7f7f7f">0..*</text>
</g>
<!-- SurfaceLayerComponent -->
<g id="node12" class="node">
<title>SurfaceLayerComponent</title>
<polygon fill="none" stroke="#92d050" points="818.5,-764.5 818.5,-840.5 962.5,-840.5 962.5,-764.5 818.5,-764.5"/>
<text text-anchor="middle" x="890.5" y="-825.3" font-family="JetBrains Mono Regular" font-size="14.00" fill="#92d050">SurfaceLayer</text>
<text text-anchor="middle" x="890.5" y="-810.3" font-family="JetBrains Mono Regular" font-size="14.00" fill="#92d050">Component</text>
<polyline fill="none" stroke="#92d050" points="818.5,-802.5 962.5,-802.5"/>
<text text-anchor="start" x="826.5" y="-787.3" font-family="JetBrains Mono Regular" font-size="14.00" fill="#92d050">&#45;inwards</text>
<text text-anchor="start" x="826.5" y="-772.3" font-family="JetBrains Mono Regular" font-size="14.00" fill="#92d050">&#45;outwards</text>
</g>
<!-- Component&#45;&gt;SurfaceLayerComponent -->
<g id="edge12" class="edge">
<title>Component&#45;&gt;SurfaceLayerComponent</title>
<path fill="none" stroke="#7f7f7f" d="M707.91,-544.79C728.82,-606.44 761.6,-684.07 808,-742.5 814.34,-750.48 821.99,-757.92 830.03,-764.67"/>
<polygon fill="none" stroke="#7f7f7f" points="713.02,-543.51 703.33,-530.91 703.05,-546.8 713.02,-543.51"/>
</g>
<!-- SubSurfaceComponent -->
<g id="node13" class="node">
<title>SubSurfaceComponent</title>
<polygon fill="none" stroke="#ab7942" points="818.5,-644.5 818.5,-720.5 962.5,-720.5 962.5,-644.5 818.5,-644.5"/>
<text text-anchor="middle" x="890.5" y="-705.3" font-family="JetBrains Mono Regular" font-size="14.00" fill="#ab7942">SubSurface</text>
<text text-anchor="middle" x="890.5" y="-690.3" font-family="JetBrains Mono Regular" font-size="14.00" fill="#ab7942">Component</text>
<polyline fill="none" stroke="#ab7942" points="818.5,-682.5 962.5,-682.5"/>
<text text-anchor="start" x="826.5" y="-667.3" font-family="JetBrains Mono Regular" font-size="14.00" fill="#ab7942">&#45;inwards</text>
<text text-anchor="start" x="826.5" y="-652.3" font-family="JetBrains Mono Regular" font-size="14.00" fill="#ab7942">&#45;outwards</text>
</g>
<!-- Component&#45;&gt;SubSurfaceComponent -->
<g id="edge13" class="edge">
<title>Component&#45;&gt;SubSurfaceComponent</title>
<path fill="none" stroke="#7f7f7f" d="M742.27,-542.53C761.74,-569.86 784.32,-598.52 808,-622.5 815.65,-630.25 824.38,-637.77 833.21,-644.71"/>
<polygon fill="none" stroke="#7f7f7f" points="746.74,-539.77 733.84,-530.49 738.14,-545.79 746.74,-539.77"/>
</g>
<!-- OpenWaterComponent -->
<g id="node14" class="node">
<title>OpenWaterComponent</title>
<polygon fill="none" stroke="#00b0f0" points="818.5,-524.5 818.5,-600.5 962.5,-600.5 962.5,-524.5 818.5,-524.5"/>
<text text-anchor="middle" x="890.5" y="-585.3" font-family="JetBrains Mono Regular" font-size="14.00" fill="#00b0f0">OpenWater</text>
<text text-anchor="middle" x="890.5" y="-570.3" font-family="JetBrains Mono Regular" font-size="14.00" fill="#00b0f0">Component</text>
<polyline fill="none" stroke="#00b0f0" points="818.5,-562.5 962.5,-562.5"/>
<text text-anchor="start" x="826.5" y="-547.3" font-family="JetBrains Mono Regular" font-size="14.00" fill="#00b0f0">&#45;inwards</text>
<text text-anchor="start" x="826.5" y="-532.3" font-family="JetBrains Mono Regular" font-size="14.00" fill="#00b0f0">&#45;outwards</text>
</g>
<!-- Component&#45;&gt;OpenWaterComponent -->
<g id="edge14" class="edge">
<title>Component&#45;&gt;OpenWaterComponent</title>
<path fill="none" stroke="#7f7f7f" d="M764.07,-491C783.73,-502.21 804.37,-513.97 823.1,-524.65"/>
<polygon fill="none" stroke="#7f7f7f" points="766.92,-486.58 751.29,-483.71 761.72,-495.7 766.92,-486.58"/>
</g>
<!-- NutrientSurfaceLayerComponent -->
<g id="node15" class="node">
<title>NutrientSurfaceLayerComponent</title>
<polygon fill="none" stroke="#469426" points="808,-404.5 808,-480.5 973,-480.5 973,-404.5 808,-404.5"/>
<text text-anchor="middle" x="890.5" y="-465.3" font-family="JetBrains Mono Regular" font-size="14.00" fill="#469426">NutrientSurfaceLayer</text>
<text text-anchor="middle" x="890.5" y="-450.3" font-family="JetBrains Mono Regular" font-size="14.00" fill="#469426">Component</text>
<polyline fill="none" stroke="#469426" points="808,-442.5 973,-442.5"/>
<text text-anchor="start" x="816" y="-427.3" font-family="JetBrains Mono Regular" font-size="14.00" fill="#469426">&#45;inwards</text>
<text text-anchor="start" x="816" y="-412.3" font-family="JetBrains Mono Regular" font-size="14.00" fill="#469426">&#45;outwards</text>
</g>
<!-- Component&#45;&gt;NutrientSurfaceLayerComponent -->
<g id="edge15" class="edge">
<title>Component&#45;&gt;NutrientSurfaceLayerComponent</title>
<path fill="none" stroke="#7f7f7f" d="M766.11,-442.5C780.08,-442.5 794.49,-442.5 808.31,-442.5"/>
<polygon fill="none" stroke="#7f7f7f" points="766.49,-437.25 751.49,-442.5 766.49,-447.75 766.49,-437.25"/>
</g>
<!-- NutrientSubSurfaceComponent -->
<g id="node16" class="node">
<title>NutrientSubSurfaceComponent</title>
<polygon fill="none" stroke="#c35900" points="813.5,-284.5 813.5,-360.5 967.5,-360.5 967.5,-284.5 813.5,-284.5"/>
<text text-anchor="middle" x="890.5" y="-345.3" font-family="JetBrains Mono Regular" font-size="14.00" fill="#c35900">NutrientSubSurface</text>
<text text-anchor="middle" x="890.5" y="-330.3" font-family="JetBrains Mono Regular" font-size="14.00" fill="#c35900">Component</text>
<polyline fill="none" stroke="#c35900" points="813.5,-322.5 967.5,-322.5"/>
<text text-anchor="start" x="821.5" y="-307.3" font-family="JetBrains Mono Regular" font-size="14.00" fill="#c35900">&#45;inwards</text>
<text text-anchor="start" x="821.5" y="-292.3" font-family="JetBrains Mono Regular" font-size="14.00" fill="#c35900">&#45;outwards</text>
</g>
<!-- Component&#45;&gt;NutrientSubSurfaceComponent -->
<g id="edge16" class="edge">
<title>Component&#45;&gt;NutrientSubSurfaceComponent</title>
<path fill="none" stroke="#7f7f7f" d="M764.07,-394C783.73,-382.79 804.37,-371.03 823.1,-360.35"/>
<polygon fill="none" stroke="#7f7f7f" points="761.72,-389.3 751.29,-401.29 766.92,-398.42 761.72,-389.3"/>
</g>
<!-- NutrientOpenWaterComponent -->
<g id="node17" class="node">
<title>NutrientOpenWaterComponent</title>
<polygon fill="none" stroke="#0ea9b8" points="814.5,-164.5 814.5,-240.5 966.5,-240.5 966.5,-164.5 814.5,-164.5"/>
<text text-anchor="middle" x="890.5" y="-225.3" font-family="JetBrains Mono Regular" font-size="14.00" fill="#0ea9b8">NutrientOpenWater</text>
<text text-anchor="middle" x="890.5" y="-210.3" font-family="JetBrains Mono Regular" font-size="14.00" fill="#0ea9b8">Component</text>
<polyline fill="none" stroke="#0ea9b8" points="814.5,-202.5 966.5,-202.5"/>
<text text-anchor="start" x="822.5" y="-187.3" font-family="JetBrains Mono Regular" font-size="14.00" fill="#0ea9b8">&#45;inwards</text>
<text text-anchor="start" x="822.5" y="-172.3" font-family="JetBrains Mono Regular" font-size="14.00" fill="#0ea9b8">&#45;outwards</text>
</g>
<!-- Component&#45;&gt;NutrientOpenWaterComponent -->
<g id="edge17" class="edge">
<title>Component&#45;&gt;NutrientOpenWaterComponent</title>
<path fill="none" stroke="#7f7f7f" d="M742.27,-342.47C761.74,-315.14 784.32,-286.48 808,-262.5 815.65,-254.75 824.38,-247.23 833.21,-240.29"/>
<polygon fill="none" stroke="#7f7f7f" points="738.14,-339.21 733.84,-354.51 746.74,-345.23 738.14,-339.21"/>
</g>
<!-- DataComponent -->
<g id="node18" class="node">
<title>DataComponent</title>
<polygon fill="none" stroke="#7f7f7f" points="818.5,-82.5 818.5,-120.5 962.5,-120.5 962.5,-82.5 818.5,-82.5"/>
<text text-anchor="middle" x="890.5" y="-105.3" font-family="JetBrains Mono Regular" font-size="14.00" fill="#7f7f7f">Data</text>
<text text-anchor="middle" x="890.5" y="-90.3" font-family="JetBrains Mono Regular" font-size="14.00" fill="#7f7f7f">Component</text>
</g>
<!-- Component&#45;&gt;DataComponent -->
<g id="edge18" class="edge">
<title>Component&#45;&gt;DataComponent</title>
<path fill="none" stroke="#7f7f7f" d="M703.73,-339.93C723.29,-276.75 756.13,-197.58 808,-142.5 816.47,-133.51 827.34,-126.19 838.37,-120.36"/>
<polygon fill="none" stroke="#7f7f7f" points="698.73,-338.3 699.47,-354.17 708.8,-341.3 698.73,-338.3"/>
</g>
<!-- NullComponent -->
<g id="node19" class="node">
<title>NullComponent</title>
<polygon fill="none" stroke="#7f7f7f" points="818.5,-0.5 818.5,-38.5 962.5,-38.5 962.5,-0.5 818.5,-0.5"/>
<text text-anchor="middle" x="890.5" y="-23.3" font-family="JetBrains Mono Regular" font-size="14.00" fill="#7f7f7f">Null</text>
<text text-anchor="middle" x="890.5" y="-8.3" font-family="JetBrains Mono Regular" font-size="14.00" fill="#7f7f7f">Component</text>
</g>
<!-- Component&#45;&gt;NullComponent -->
<g id="edge19" class="edge">
<title>Component&#45;&gt;NullComponent</title>
<path fill="none" stroke="#7f7f7f" d="M691.91,-339.46C707.1,-255.83 739.58,-139.28 808,-60.5 815.89,-51.41 826.28,-44.11 836.99,-38.33"/>
<polygon fill="none" stroke="#7f7f7f" points="686.73,-338.55 689.35,-354.23 697.08,-340.34 686.73,-338.55"/>
</g>
<!-- Model -->
<g id="node20" class="node">
<title>Model</title>
<polygon fill="none" stroke="#7f7f7f" points="1031,-378 1031,-507 1175,-507 1175,-378 1031,-378"/>
<text text-anchor="middle" x="1103" y="-491.8" font-family="JetBrains Mono Regular" font-size="14.00" fill="#7f7f7f">Model</text>
<polyline fill="none" stroke="#7f7f7f" points="1031,-484 1175,-484"/>
<text text-anchor="start" x="1039" y="-468.8" font-family="JetBrains Mono Regular" font-size="14.00" fill="#7f7f7f">+identifier</text>
<polyline fill="none" stroke="#7f7f7f" points="1031,-461 1175,-461"/>
<text text-anchor="start" x="1039" y="-445.8" font-family="JetBrains Mono Regular" font-size="14.00" fill="#7f7f7f">+spinup()</text>
<text text-anchor="start" x="1039" y="-430.8" font-family="JetBrains Mono Regular" font-size="14.00" fill="#7f7f7f">+simulate()</text>
<text text-anchor="start" x="1039" y="-415.8" font-family="JetBrains Mono Regular" font-size="14.00" fill="#7f7f7f">+resume()</text>
<text text-anchor="start" x="1039" y="-400.8" font-family="JetBrains Mono Regular" font-size="14.00" fill="#7f7f7f">+from_yaml()</text>
<text text-anchor="start" x="1039" y="-385.8" font-family="JetBrains Mono Regular" font-size="14.00" fill="#7f7f7f">+to_yaml()</text>
</g>
<!-- SurfaceLayerComponent&#45;&gt;Model -->
<g id="edge20" class="edge">
<title>SurfaceLayerComponent&#45;&gt;Model</title>
<path fill="none" stroke="#7f7f7f" d="M950.97,-764.67C959.01,-757.92 966.66,-750.48 973,-742.5 1024.5,-677.64 1059.23,-589.12 1079.56,-525.06"/>
<polygon fill="none" stroke="#7f7f7f" points="1079.61,-524.91 1076.52,-514.55 1084.9,-507.71 1087.99,-518.08 1079.61,-524.91"/>
<text text-anchor="middle" x="964.97" y="-753.47" font-family="JetBrains Mono Regular" font-size="14.00" fill="#7f7f7f">0..1</text>
</g>
<!-- SubSurfaceComponent&#45;&gt;Model -->
<g id="edge21" class="edge">
<title>SubSurfaceComponent&#45;&gt;Model</title>
<path fill="none" stroke="#7f7f7f" d="M947.79,-644.71C956.62,-637.77 965.35,-630.25 973,-622.5 1002.6,-592.52 1030.49,-555.23 1052.72,-522.38"/>
<polygon fill="none" stroke="#7f7f7f" points="1052.7,-522.41 1052.68,-511.59 1062.66,-507.41 1062.68,-518.23 1052.7,-522.41"/>
<text text-anchor="middle" x="961.79" y="-633.51" font-family="JetBrains Mono Regular" font-size="14.00" fill="#7f7f7f">0..1</text>
</g>
<!-- OpenWaterComponent&#45;&gt;Model -->
<g id="edge22" class="edge">
<title>OpenWaterComponent&#45;&gt;Model</title>
<path fill="none" stroke="#7f7f7f" d="M958.1,-524.53C976.08,-514.28 995.81,-503.04 1014.74,-492.25"/>
<polygon fill="none" stroke="#7f7f7f" points="1014.68,-492.28 1019.53,-482.61 1030.32,-483.36 1025.47,-493.03 1014.68,-492.28"/>
<text text-anchor="middle" x="972.1" y="-513.33" font-family="JetBrains Mono Regular" font-size="14.00" fill="#7f7f7f">0..1</text>
</g>
<!-- NutrientSurfaceLayerComponent&#45;&gt;Model -->
<g id="edge23" class="edge">
<title>NutrientSurfaceLayerComponent&#45;&gt;Model</title>
<path fill="none" stroke="#7f7f7f" d="M972.88,-442.5C985.79,-442.5 999.2,-442.5 1012.28,-442.5"/>
<polygon fill="none" stroke="#7f7f7f" points="1012.21,-442.5 1021.21,-436.5 1030.21,-442.5 1021.21,-448.5 1012.21,-442.5"/>
<text text-anchor="middle" x="986.88" y="-431.3" font-family="JetBrains Mono Regular" font-size="14.00" fill="#7f7f7f">0..1</text>
</g>
<!-- NutrientSubSurfaceComponent&#45;&gt;Model -->
<g id="edge24" class="edge">
<title>NutrientSubSurfaceComponent&#45;&gt;Model</title>
<path fill="none" stroke="#7f7f7f" d="M958.1,-360.47C976.08,-370.72 995.81,-381.96 1014.74,-392.75"/>
<polygon fill="none" stroke="#7f7f7f" points="1014.68,-392.72 1025.47,-391.97 1030.32,-401.64 1019.53,-402.39 1014.68,-392.72"/>
<text text-anchor="middle" x="972.1" y="-364.27" font-family="JetBrains Mono Regular" font-size="14.00" fill="#7f7f7f">0..1</text>
</g>
<!-- NutrientOpenWaterComponent&#45;&gt;Model -->
<g id="edge25" class="edge">
<title>NutrientOpenWaterComponent&#45;&gt;Model</title>
<path fill="none" stroke="#7f7f7f" d="M947.79,-240.29C956.62,-247.23 965.35,-254.75 973,-262.5 1002.6,-292.48 1030.49,-329.77 1052.72,-362.62"/>
<polygon fill="none" stroke="#7f7f7f" points="1052.7,-362.59 1062.68,-366.77 1062.66,-377.59 1052.68,-373.41 1052.7,-362.59"/>
<text text-anchor="middle" x="961.79" y="-244.09" font-family="JetBrains Mono Regular" font-size="14.00" fill="#7f7f7f">0..1</text>
</g>
<!-- DataComponent&#45;&gt;Model -->
<g id="edge26" class="edge">
<title>DataComponent&#45;&gt;Model</title>
<path fill="none" stroke="#7f7f7f" d="M942.63,-120.36C953.66,-126.19 964.53,-133.51 973,-142.5 1030.52,-203.58 1064.65,-294.3 1083.21,-359.97"/>
<polygon fill="none" stroke="#7f7f7f" points="1083.2,-359.97 1091.35,-367.09 1087.91,-377.34 1079.76,-370.22 1083.2,-359.97"/>
<text text-anchor="middle" x="955.13" y="-124.16" font-family="JetBrains Mono Regular" font-size="14.00" fill="#7f7f7f">0..*</text>
</g>
<!-- NullComponent&#45;&gt;Model -->
<g id="edge27" class="edge">
<title>NullComponent&#45;&gt;Model</title>
<path fill="none" stroke="#7f7f7f" d="M944.01,-38.33C954.72,-44.11 965.11,-51.41 973,-60.5 1047.1,-145.81 1079.04,-275.42 1092.53,-359.54"/>
<polygon fill="none" stroke="#7f7f7f" points="1092.54,-359.64 1099.82,-367.65 1095.22,-377.44 1087.95,-369.43 1092.54,-359.64"/>
<text text-anchor="middle" x="956.51" y="-42.13" font-family="JetBrains Mono Regular" font-size="14.00" fill="#7f7f7f">0..*</text>
</g>
<!-- Clock -->
<g id="node21" class="node">
<title>Clock</title>
<polygon fill="none" stroke="#ffc000" points="1233,-510 1233,-579 1377,-579 1377,-510 1233,-510"/>
<text text-anchor="middle" x="1305" y="-563.8" font-family="JetBrains Mono Regular" font-size="14.00" fill="#ffc000">Clock</text>
<polyline fill="none" stroke="#ffc000" points="1233,-556 1377,-556"/>
<text text-anchor="start" x="1241" y="-540.8" font-family="JetBrains Mono Regular" font-size="14.00" fill="#ffc000">+timedomains</text>
<polyline fill="none" stroke="#ffc000" points="1233,-533 1377,-533"/>
<text text-anchor="start" x="1241" y="-517.8" font-family="JetBrains Mono Regular" font-size="14.00" fill="#ffc000">+__iter__()</text>
</g>
<!-- Model&#45;&gt;Clock -->
<g id="edge28" class="edge">
<title>Model&#45;&gt;Clock</title>
<path fill="none" stroke="#7f7f7f" d="M1191.61,-487.18C1206.71,-494.88 1222.19,-502.78 1236.65,-510.15"/>
<polygon fill="#7f7f7f" stroke="#7f7f7f" points="1191.63,-487.19 1180.89,-488.45 1175.6,-479.01 1186.34,-477.76 1191.63,-487.19"/>
<text text-anchor="middle" x="1231.65" y="-498.95" font-family="JetBrains Mono Regular" font-size="14.00" fill="#7f7f7f">1</text>
</g>
<!-- Compass -->
<g id="node22" class="node">
<title>Compass</title>
<polygon fill="none" stroke="#7a4679" points="1233,-419.5 1233,-465.5 1377,-465.5 1377,-419.5 1233,-419.5"/>
<text text-anchor="middle" x="1305" y="-450.3" font-family="JetBrains Mono Regular" font-size="14.00" fill="#7a4679">Compass</text>
<polyline fill="none" stroke="#7a4679" points="1233,-442.5 1377,-442.5"/>
<text text-anchor="start" x="1241" y="-427.3" font-family="JetBrains Mono Regular" font-size="14.00" fill="#7a4679">+spacedomains</text>
</g>
<!-- Model&#45;&gt;Compass -->
<g id="edge29" class="edge">
<title>Model&#45;&gt;Compass</title>
<path fill="none" stroke="#7f7f7f" d="M1193.42,-442.5C1206.78,-442.5 1220.4,-442.5 1233.3,-442.5"/>
<polygon fill="#7f7f7f" stroke="#7f7f7f" points="1193.7,-442.5 1184.7,-448.5 1175.7,-442.5 1184.7,-436.5 1193.7,-442.5"/>
<text text-anchor="middle" x="1228.3" y="-431.3" font-family="JetBrains Mono Regular" font-size="14.00" fill="#7f7f7f">1</text>
</g>
<!-- Exchanger -->
<g id="node23" class="node">
<title>Exchanger</title>
<polygon fill="none" stroke="#d87eaa" points="1233,-314 1233,-375 1377,-375 1377,-314 1233,-314"/>
<text text-anchor="middle" x="1305" y="-359.8" font-family="JetBrains Mono Regular" font-size="14.00" fill="#d87eaa">Exchanger</text>
<polyline fill="none" stroke="#d87eaa" points="1233,-352 1377,-352"/>
<text text-anchor="start" x="1241" y="-336.8" font-family="JetBrains Mono Regular" font-size="14.00" fill="#d87eaa">+transfers</text>
<text text-anchor="start" x="1241" y="-321.8" font-family="JetBrains Mono Regular" font-size="14.00" fill="#d87eaa">+dump_file</text>
</g>
<!-- Model&#45;&gt;Exchanger -->
<g id="edge30" class="edge">
<title>Model&#45;&gt;Exchanger</title>
<path fill="none" stroke="#7f7f7f" d="M1191.8,-399.48C1208.7,-391.2 1226.07,-382.69 1241.94,-374.91"/>
<polygon fill="#7f7f7f" stroke="#7f7f7f" points="1191.77,-399.49 1186.33,-408.84 1175.6,-407.41 1181.05,-398.07 1191.77,-399.49"/>
<text text-anchor="middle" x="1236.94" y="-378.71" font-family="JetBrains Mono Regular" font-size="14.00" fill="#7f7f7f">1</text>
</g>
</g>
</svg>
